{
  "accessors": [
    {
      "bufferView": 2,
      "componentType": 5126,
      "count": 240,
      "max": [
        1.6027899980545044,
        8.731797218322754,
        1.4738889932632446
      ],
      "min": [
        -1.6026300191879272,
        5.456246852874756,
        -0.10297100245952606
      ],
      "type": "VEC3"
    },
    {
      "bufferView": 2,
      "byteOffset": 2880,
      "componentType": 5126,
      "count": 240,
      "max": [
        1.0,
        1.0,
        1.0
      ],
      "min": [
        -1.0,
        -1.0,
        -1.0
      ],
      "type": "VEC3"
    },
    {
      "bufferView": 3,
      "componentType": 5126,
      "count": 240,
      "max": [
        0.0,
        1.0,
        1.0,
        1.0
      ],
      "min": [
        0.0,
        -1.0,
        -1.0,
        -1.0
      ],
      "type": "VEC4"
    },
    {
      "bufferView": 1,
      "componentType": 5126,
      "count": 240,
      "max": [
        0.9945999979972839,
        -0.006099999882280827
      ],
      "min": [
        0.004399999976158142,
        -0.9922000169754028
      ],
      "type": "VEC2"
    },
    {
      "bufferView": 0,
      "componentType": 5125,
      "count": 624,
      "type": "SCALAR"
    },
    {
      "bufferView": 2,
      "byteOffset": 5760,
      "componentType": 5126,
      "count": 6530,
      "max": [
        1.973770022392273,
        11.102896690368652,
        5.477637767791748
      ],
      "min": [
        -1.9736100435256958,
        -6.115112781524658,
        0.005239000078290701
      ],
      "type": "VEC3"
    },
    {
      "bufferView": 2,
      "byteOffset": 84120,
      "componentType": 5126,
      "count": 6530,
      "max": [
        1.0,
        1.0,
        1.0
      ],
      "min": [
        -1.0,
        -1.0,
        -1.0
      ],
      "type": "VEC3"
    },
    {
      "bufferView": 3,
      "byteOffset": 3840,
      "componentType": 5126,
      "count": 6530,
      "max": [
        1.0,
        1.0,
        1.0,
        1.0
      ],
      "min": [
        -1.0,
        -1.0,
        -1.0,
        -1.0
      ],
      "type": "VEC4"
    },
    {
      "bufferView": 1,
      "byteOffset": 1920,
      "componentType": 5126,
      "count": 6530,
      "max": [
        0.9962999820709229,
        -0.00559999980032444
      ],
      "min": [
        0.0038999998942017555,
        -0.9962999820709229
      ],
      "type": "VEC2"
    },
    {
      "bufferView": 0,
      "byteOffset": 2496,
      "componentType": 5125,
      "count": 12306,
      "type": "SCALAR"
    },
    {
      "bufferView": 2,
      "byteOffset": 162480,
      "componentType": 5126,
      "count": 4356,
      "max": [
        2.782089948654175,
        18.22012710571289,
        47.14582824707031
      ],
      "min": [
        -1.5516599416732788,
        -18.21573257446289,
        1.6151390075683594
      ],
      "type": "VEC3"
    },
    {
      "bufferView": 2,
      "byteOffset": 214752,
      "componentType": 5126,
      "count": 4356,
      "max": [
        1.0,
        1.0,
        1.0
      ],
      "min": [
        -1.0,
        -1.0,
        -1.0
      ],
      "type": "VEC3"
    },
    {
      "bufferView": 3,
      "byteOffset": 108320,
      "componentType": 5126,
      "count": 4356,
      "max": [
        1.0,
        1.0,
        1.0,
        1.0
      ],
      "min": [
        -1.0,
        -1.0,
        -1.0,
        -1.0
      ],
      "type": "VEC4"
    },
    {
      "bufferView": 1,
      "byteOffset": 54160,
      "componentType": 5126,
      "count": 4356,
      "max": [
        0.9961000084877014,
        -0.008299999870359898
      ],
      "min": [
        0.0038999998942017555,
        -0.9962999820709229
      ],
      "type": "VEC2"
    },
    {
      "bufferView": 0,
      "byteOffset": 51720,
      "componentType": 5125,
      "count": 7200,
      "type": "SCALAR"
    },
    {
      "bufferView": 2,
      "byteOffset": 267024,
      "componentType": 5126,
      "count": 7275,
      "max": [
        1.5967999696731567,
        18.296056747436523,
        49.947288513183594
      ],
      "min": [
        -1.5891400575637817,
        -18.291662216186523,
        1.6126090288162231
      ],
      "type": "VEC3"
    },
    {
      "bufferView": 2,
      "byteOffset": 354324,
      "componentType": 5126,
      "count": 7275,
      "max": [
        1.0,
        1.0,
        1.0
      ],
      "min": [
        -1.0,
        -1.0,
        -1.0
      ],
      "type": "VEC3"
    },
    {
      "bufferView": 3,
      "byteOffset": 178016,
      "componentType": 5126,
      "count": 7275,
      "max": [
        1.0,
        1.0,
        1.0,
        1.0
      ],
      "min": [
        -1.0,
        -1.0,
        -1.0,
        -1.0
      ],
      "type": "VEC4"
    },
    {
      "bufferView": 1,
      "byteOffset": 89008,
      "componentType": 5126,
      "count": 7275,
      "max": [
        0.9968000054359436,
        -0.006599999964237213
      ],
      "min": [
        0.0038999998942017555,
        -0.9962999820709229
      ],
      "type": "VEC2"
    },
    {
      "bufferView": 0,
      "byteOffset": 80520,
      "componentType": 5125,
      "count": 13044,
      "type": "SCALAR"
    }
  ],
  "asset": {
    "extras": {
      "author": "KojfDiscord (https://sketchfab.com/KojfDiscord)",
      "license": "CC-BY-4.0 (http://creativecommons.org/licenses/by/4.0/)",
      "source": "https://sketchfab.com/3d-models/ussr-55zh6-nebo-radar-war-thunder-af-39b14631022a49a6a9667d274515f87a",
      "title": "USSR 55Zh6 \"Nebo\" Radar (War Thunder AF!)"
    },
    "generator": "Sketchfab-17.8.0",
    "version": "2.0"
  },
  "bufferViews": [
    {
      "buffer": 0,
      "byteLength": 132696,
      "name": "floatBufferViews",
      "target": 34963
    },
    {
      "buffer": 0,
      "byteLength": 147208,
      "byteOffset": 132696,
      "byteStride": 8,
      "name": "floatBufferViews",
      "target": 34962
    },
    {
      "buffer": 0,
      "byteLength": 441624,
      "byteOffset": 279904,
      "byteStride": 12,
      "name": "floatBufferViews",
      "target": 34962
    },
    {
      "buffer": 0,
      "byteLength": 294416,
      "byteOffset": 721528,
      "byteStride": 16,
      "name": "floatBufferViews",
      "target": 34962
    }
  ],
  "buffers": [
    {
      "byteLength": 1015944,
      "uri": "scene.bin"
    }
  ],
  "extensionsRequired": [
    "KHR_materials_pbrSpecularGlossiness"
  ],
  "extensionsUsed": [
    "KHR_materials_pbrSpecularGlossiness"
  ],
  "images": [
    {
      "uri": "textures/53ff4755-3edd-4ae5-8371-bed11a731f82_diffuse.png"
    },
    {
      "uri": "textures/53ff4755-3edd-4ae5-8371-bed11a731f82_specularGlossiness.jpeg"
    },
    {
      "uri": "textures/53ff4755-3edd-4ae5-8371-bed11a731f82_normal.png"
    },
    {
      "uri": "textures/787d253a-fd6c-44ec-a940-42cdd0399a08_diffuse.png"
    },
    {
      "uri": "textures/787d253a-fd6c-44ec-a940-42cdd0399a08_specularGlossiness.jpeg"
    },
    {
      "uri": "textures/787d253a-fd6c-44ec-a940-42cdd0399a08_normal.png"
    },
    {
      "uri": "textures/814cb862-6c7a-4e27-a49a-c1f290c43592_diffuse.jpeg"
    },
    {
      "uri": "textures/b01211f5-a6b9-42c0-bd33-f7ac1b3fe97f_diffuse.png"
    },
    {
      "uri": "textures/b01211f5-a6b9-42c0-bd33-f7ac1b3fe97f_specularGlossiness.jpeg"
    },
    {
      "uri": "textures/b01211f5-a6b9-42c0-bd33-f7ac1b3fe97f_normal.png"
    }
  ],
  "materials": [
    {
      "alphaMode": "BLEND",
      "doubleSided": true,
      "extensions": {
        "KHR_materials_pbrSpecularGlossiness": {
          "diffuseFactor": [
            1.0,
            1.0,
            1.0,
            1.0
          ],
          "diffuseTexture": {
            "index": 0
          },
          "glossinessFactor": 0.11748543542989995,
          "specularFactor": [
            0.05,
            0.05,
            0.05
          ],
          "specularGlossinessTexture": {
            "index": 1
          }
        }
      },
      "name": "53ff4755-3edd-4ae5-8371-bed11a731f82",
      "normalTexture": {
        "index": 2
      }
    },
    {
      "alphaMode": "BLEND",
      "doubleSided": true,
      "extensions": {
        "KHR_materials_pbrSpecularGlossiness": {
          "diffuseFactor": [
            1.0,
            1.0,
            1.0,
            1.0
          ],
          "diffuseTexture": {
            "index": 3
          },
          "glossinessFactor": 0.11748543542989995,
          "specularFactor": [
            0.05,
            0.05,
            0.05
          ],
          "specularGlossinessTexture": {
            "index": 4
          }
        }
      },
      "name": "787d253a-fd6c-44ec-a940-42cdd0399a08",
      "normalTexture": {
        "index": 5
      }
    },
    {
      "doubleSided": true,
      "extensions": {
        "KHR_materials_pbrSpecularGlossiness": {
          "diffuseFactor": [
            1.0,
            1.0,
            1.0,
            1.0
          ],
          "diffuseTexture": {
            "index": 6
          },
          "glossinessFactor": 0.11748543542989995,
          "specularFactor": [
            0.05,
            0.05,
            0.05
          ],
          "specularGlossinessTexture": {
            "index": 4
          }
        }
      },
      "name": "814cb862-6c7a-4e27-a49a-c1f290c43592",
      "normalTexture": {
        "index": 5
      }
    },
    {
      "alphaMode": "BLEND",
      "doubleSided": true,
      "extensions": {
        "KHR_materials_pbrSpecularGlossiness": {
          "diffuseFactor": [
            1.0,
            1.0,
            1.0,
            1.0
          ],
          "diffuseTexture": {
            "index": 7
          },
          "glossinessFactor": 0.11748543542989995,
          "specularFactor": [
            0.05,
            0.05,
            0.05
          ],
          "specularGlossinessTexture": {
            "index": 8
          }
        }
      },
      "name": "b01211f5-a6b9-42c0-bd33-f7ac1b3fe97f",
      "normalTexture": {
        "index": 9
      }
    }
  ],
  "meshes": [
    {
      "name": "Object_0",
      "primitives": [
        {
          "attributes": {
            "NORMAL": 1,
            "POSITION": 0,
            "TANGENT": 2,
            "TEXCOORD_0": 3
          },
          "indices": 4,
          "material": 3,
          "mode": 4
        }
      ]
    },
    {
      "name": "Object_1",
      "primitives": [
        {
          "attributes": {
            "NORMAL": 6,
            "POSITION": 5,
            "TANGENT": 7,
            "TEXCOORD_0": 8
          },
          "indices": 9,
          "material": 0,
          "mode": 4
        }
      ]
    },
    {
      "name": "Object_2",
      "primitives": [
        {
          "attributes": {
            "NORMAL": 11,
            "POSITION": 10,
            "TANGENT": 12,
            "TEXCOORD_0": 13
          },
          "indices": 14,
          "material": 1,
          "mode": 4
        }
      ]
    },
    {
      "name": "Object_3",
      "primitives": [
        {
          "attributes": {
            "NORMAL": 16,
            "POSITION": 15,
            "TANGENT": 17,
            "TEXCOORD_0": 18
          },
          "indices": 19,
          "material": 2,
          "mode": 4
        }
      ]
    }
  ],
  "nodes": [
    {
      "children": [
        1
      ],
      "matrix": [
        1.0,
        0.0,
        0.0,
        0.0,
        0.0,
        2.220446049250313e-16,
        -1.0,
        0.0,
        0.0,
        1.0,
        2.220446049250313e-16,
        0.0,
        0.0,
        0.0,
        0.0,
        1.0
      ],
      "name": "Sketchfab_model"
    },
    {
      "children": [
        2,
        3,
        4,
        5
      ],
      "name": "ussr_ai_aew_radar_55j6_shop.obj.cleaner.materialmerger.gles"
    },
    {
      "mesh": 0,
      "name": "Object_2"
    },
    {
      "mesh": 1,
      "name": "Object_3"
    },
    {
      "mesh": 2,
      "name": "Object_4"
    },
    {
      "mesh": 3,
      "name": "Object_5"
    }
  ],
  "samplers": [
    {
      "magFilter": 9729,
      "minFilter": 9987,
      "wrapS": 10497,
      "wrapT": 10497
    }
  ],
  "scene": 0,
  "scenes": [
    {
      "name": "Sketchfab_Scene",
      "nodes": [
        0
      ]
    }
  ],
  "textures": [
    {
      "sampler": 0,
      "source": 0
    },
    {
      "sampler": 0,
      "source": 1
    },
    {
      "sampler": 0,
      "source": 2
    },
    {
      "sampler": 0,
      "source": 3
    },
    {
      "sampler": 0,
      "source": 4
    },
    {
      "sampler": 0,
      "source": 5
    },
    {
      "sampler": 0,
      "source": 6
    },
    {
      "sampler": 0,
      "source": 7
    },
    {
      "sampler": 0,
      "source": 8
    },
    {
      "sampler": 0,
      "source": 9
    }
  ]
}
