{
  "accessors": [
    {
      "bufferView": 2,
      "componentType": 5126,
      "count": 7788,
      "max": [
        30.092893600463867,
        44.857154846191406,
        16.515199661254883
      ],
      "min": [
        -31.795734405517578,
        -45.026702880859375,
        -2.7853646278381348
      ],
      "type": "VEC3"
    },
    {
      "bufferView": 2,
      "byteOffset": 93456,
      "componentType": 5126,
      "count": 7788,
      "max": [
        1.0,
        1.0,
        1.0
      ],
      "min": [
        -1.0,
        -1.0,
        -1.0
      ],
      "type": "VEC3"
    },
    {
      "bufferView": 1,
      "componentType": 5126,
      "count": 7788,
      "max": [
        4.461433410644531,
        1.0011783838272095
      ],
      "min": [
        -2.240720510482788,
        0.011081431061029434
      ],
      "type": "VEC2"
    },
    {
      "bufferView": 0,
      "componentType": 5125,
      "count": 15396,
      "type": "SCALAR"
    },
    {
      "bufferView": 2,
      "byteOffset": 186912,
      "componentType": 5126,
      "count": 4406,
      "max": [
        30.092893600463867,
        44.857154846191406,
        16.515199661254883
      ],
      "min": [
        -31.795734405517578,
        -45.026702880859375,
        -2.7853646278381348
      ],
      "type": "VEC3"
    },
    {
      "bufferView": 2,
      "byteOffset": 239784,
      "componentType": 5126,
      "count": 4406,
      "max": [
        1.0,
        1.0,
        1.0
      ],
      "min": [
        -1.0,
        -1.0,
        -1.0
      ],
      "type": "VEC3"
    },
    {
      "bufferView": 1,
      "byteOffset": 62304,
      "componentType": 5126,
      "count": 4406,
      "max": [
        2.7129671573638916,
        1.0011783838272095
      ],
      "min": [
        -1.4345272779464722,
        0.46711283922195435
      ],
      "type": "VEC2"
    },
    {
      "bufferView": 0,
      "byteOffset": 61584,
      "componentType": 5125,
      "count": 8940,
      "type": "SCALAR"
    }
  ],
  "asset": {
    "extras": {
      "author": "ElectricLeo (https://sketchfab.com/ElectricLeo)",
      "license": "CC-BY-4.0 (http://creativecommons.org/licenses/by/4.0/)",
      "source": "https://sketchfab.com/3d-models/j-type-hanger-d86713d61b4941378a6ad21569e0cbac",
      "title": "j type hanger"
    },
    "generator": "Sketchfab-13.74.0",
    "version": "2.0"
  },
  "bufferViews": [
    {
      "buffer": 0,
      "byteLength": 97344,
      "name": "floatBufferViews",
      "target": 34963
    },
    {
      "buffer": 0,
      "byteLength": 97552,
      "byteOffset": 97344,
      "byteStride": 8,
      "name": "floatBufferViews",
      "target": 34962
    },
    {
      "buffer": 0,
      "byteLength": 292656,
      "byteOffset": 194896,
      "byteStride": 12,
      "name": "floatBufferViews",
      "target": 34962
    }
  ],
  "buffers": [
    {
      "byteLength": 487552,
      "uri": "scene.bin"
    }
  ],
  "images": [
    {
      "uri": "textures/hangar_baseColor.png"
    },
    {
      "uri": "textures/hangar_metallicRoughness.png"
    }
  ],
  "materials": [
    {
      "doubleSided": true,
      "name": "hangar",
      "pbrMetallicRoughness": {
        "baseColorTexture": {
          "index": 0
        },
        "metallicFactor": 0.0,
        "metallicRoughnessTexture": {
          "index": 1
        }
      }
    }
  ],
  "meshes": [
    {
      "name": "Object_0",
      "primitives": [
        {
          "attributes": {
            "NORMAL": 1,
            "POSITION": 0,
            "TEXCOORD_0": 2
          },
          "indices": 3,
          "material": 0,
          "mode": 4
        }
      ]
    },
    {
      "name": "Object_1",
      "primitives": [
        {
          "attributes": {
            "NORMAL": 5,
            "POSITION": 4,
            "TEXCOORD_0": 6
          },
          "indices": 7,
          "material": 0,
          "mode": 4
        }
      ]
    }
  ],
  "nodes": [
    {
      "children": [
        1
      ],
      "matrix": [
        1.0,
        0.0,
        0.0,
        0.0,
        0.0,
        2.220446049250313e-16,
        -1.0,
        0.0,
        0.0,
        1.0,
        2.220446049250313e-16,
        0.0,
        0.0,
        0.0,
        0.0,
        1.0
      ],
      "name": "Sketchfab_model"
    },
    {
      "children": [
        2,
        3
      ],
      "name": "j type hanger.obj.cleaner.materialmerger.gles"
    },
    {
      "mesh": 0,
      "name": "Object_2"
    },
    {
      "mesh": 1,
      "name": "Object_3"
    }
  ],
  "samplers": [
    {
      "magFilter": 9729,
      "minFilter": 9987,
      "wrapS": 10497,
      "wrapT": 10497
    }
  ],
  "scene": 0,
  "scenes": [
    {
      "name": "Sketchfab_Scene",
      "nodes": [
        0
      ]
    }
  ],
  "textures": [
    {
      "sampler": 0,
      "source": 0
    },
    {
      "sampler": 0,
      "source": 1
    }
  ]
}
